<svg xmlns="http://www.w3.org/2000/svg" version="1.1" width="1440" height="560" preserveAspectRatio="none" viewBox="0 0 1440 560"><g mask="url(&quot;#SvgjsMask1007&quot;)" fill="none"><rect width="1440" height="560" x="0" y="0" fill="rgba(16, 185, 129, 1)"></rect><path d="M 0,13 C 57.6,61.2 172.8,233.4 288,254 C 403.2,274.6 460.8,112.6 576,116 C 691.2,119.4 748.8,283.2 864,271 C 979.2,258.8 1036.8,73.8 1152,55 C 1267.2,36.2 1382.4,152.6 1440,177L1440 560L0 560z" fill="rgba(110, 231, 183, 1)"></path><path d="M 0,388 C 96,409.2 288,489 480,494 C 672,499 768,407.6 960,413 C 1152,418.4 1344,499.4 1440,521L1440 560L0 560z" fill="rgba(209, 250, 229, 1)"></path></g><defs><mask id="SvgjsMask1007"><rect width="1440" height="560" fill="#ffffff"></rect></mask></defs></svg>